<svg xmlns="http://www.w3.org/2000/svg" viewBox="0 0 160 340" fill="none">
  <defs>
    <linearGradient id="frontBody" x1="80" x2="80" y1="18" y2="320" gradientUnits="userSpaceOnUse">
      <stop stop-color="#f5f2ee"/>
      <stop offset=".48" stop-color="#d9d5d2"/>
      <stop offset="1" stop-color="#bbb8b6"/>
    </linearGradient>
    <linearGradient id="frontShadow" x1="26" x2="134" y1="66" y2="274" gradientUnits="userSpaceOnUse">
      <stop stop-color="#8e949b" stop-opacity=".05"/>
      <stop offset=".5" stop-color="#303843" stop-opacity=".22"/>
      <stop offset="1" stop-color="#0f1520" stop-opacity=".16"/>
    </linearGradient>
    <linearGradient id="frontMuscle" x1="80" x2="80" y1="62" y2="280" gradientUnits="userSpaceOnUse">
      <stop stop-color="#e9edf4" stop-opacity=".9"/>
      <stop offset=".5" stop-color="#d6dce5" stop-opacity=".72"/>
      <stop offset="1" stop-color="#b9c1cc" stop-opacity=".7"/>
    </linearGradient>
    <filter id="frontGlow" width="180" height="360" x="-10" y="-10" color-interpolation-filters="sRGB" filterUnits="userSpaceOnUse">
      <feDropShadow dx="0" dy="8" flood-color="#111827" flood-opacity=".24" stdDeviation="8"/>
    </filter>
  </defs>

  <g filter="url(#frontGlow)">
    <ellipse cx="80" cy="24" rx="20" ry="22" fill="url(#frontBody)" stroke="#8f98a3" stroke-opacity=".6" stroke-width=".9"/>
    <path d="M74 43v15c3 3 9 3 12 0V43Z" fill="url(#frontBody)" stroke="#8f98a3" stroke-opacity=".58" stroke-width=".85"/>
    <path d="M30 60c-10 6-14 23-14 47 0 22 4 42 10 56h108c6-14 10-34 10-56 0-24-4-41-14-47-16-6-32-8-50-8s-34 2-50 8Z" fill="url(#frontBody)" stroke="#8f98a3" stroke-opacity=".62" stroke-width=".95"/>
    <path d="M14 65C6 76 4 103 8 127c2 12 10 17 18 15l2-79Z" fill="url(#frontBody)" stroke="#8f98a3" stroke-opacity=".54" stroke-width=".8"/>
    <path d="M146 65c8 11 10 38 6 62-2 12-10 17-18 15l-2-79Z" fill="url(#frontBody)" stroke="#8f98a3" stroke-opacity=".54" stroke-width=".8"/>
    <path d="M6 129c-2 14 0 37 4 49 4 8 12 11 18 9v-46Z" fill="url(#frontBody)" stroke="#8f98a3" stroke-opacity=".5" stroke-width=".78"/>
    <path d="M154 129c2 14 0 37-4 49-4 8-12 11-18 9v-46Z" fill="url(#frontBody)" stroke="#8f98a3" stroke-opacity=".5" stroke-width=".78"/>
    <path d="M26 165c-4 18-6 54-4 83 2 12 10 18 22 16 12-2 16-12 18-24l2-75Z" fill="url(#frontBody)" stroke="#8f98a3" stroke-opacity=".58" stroke-width=".9"/>
    <path d="M134 165c4 18 6 54 4 83-2 12-10 18-22 16-12-2-16-12-18-24l-2-75Z" fill="url(#frontBody)" stroke="#8f98a3" stroke-opacity=".58" stroke-width=".9"/>
    <path d="M22 250c-2 14 0 43 4 57 4 10 12 14 22 12 10-2 14-10 12-23v-50Z" fill="url(#frontBody)" stroke="#8f98a3" stroke-opacity=".55" stroke-width=".88"/>
    <path d="M138 250c2 14 0 43-4 57-4 10-12 14-22 12-10-2-14-10-12-23v-50Z" fill="url(#frontBody)" stroke="#8f98a3" stroke-opacity=".55" stroke-width=".88"/>

    <path d="M28 63c-10 6-16 18-14 32 1 8 5 16 12 22l6-11c-4-4-6-10-6-18 0-10 3-18 8-23Z" fill="url(#frontShadow)"/>
    <path d="M132 63c10 6 16 18 14 32-1 8-5 16-12 22l-6-11c4-4 6-10 6-18 0-10-3-18-8-23Z" fill="url(#frontShadow)"/>
    <path d="M80 63c-14-1-28 2-40 10-8 6-12 15-12 24 0 10 4 16 11 18 11 4 25 1 37-5 6-3 10-9 12-18 2 9 6 15 12 18 12 6 26 9 37 5 7-2 11-8 11-18 0-9-4-18-12-24-12-8-26-11-40-10Z" fill="url(#frontMuscle)" opacity=".75"/>
    <path d="M44 111c-3 15-3 31 0 48h72c3-17 3-33 0-48Z" fill="url(#frontMuscle)" opacity=".82"/>
    <path d="M49 116h62M49 128h62M49 140h62M49 152h62" stroke="#7d8793" stroke-opacity=".28" stroke-linecap="round"/>
    <path d="M80 114v44" stroke="#7d8793" stroke-opacity=".34" stroke-linecap="round"/>
    <path d="M12 101c-4 13-4 29 0 41 5 8 12 11 18 7 7-4 9-12 8-21-1-10-4-20-10-27-4-4-10-5-16 0ZM148 101c4 13 4 29 0 41-5 8-12 11-18 7-7-4-9-12-8-21 1-10 4-20 10-27 4-4 10-5 16 0Z" fill="url(#frontMuscle)" opacity=".7"/>
    <path d="M24 167c-3 18-4 49-2 77 2 10 8 15 17 16 10 1 16-5 19-15l4-78ZM136 167c3 18 4 49 2 77-2 10-8 15-17 16-10 1-16-5-19-15l-4-78Z" fill="url(#frontMuscle)" opacity=".74"/>
    <path d="M29 247c-2 12 0 31 4 44 4 8 10 11 18 10 8-1 11-7 10-16l-1-38ZM131 247c2 12 0 31-4 44-4 8-10 11-18 10-8-1-11-7-10-16l1-38Z" fill="url(#frontShadow)" opacity=".55"/>
    <path d="M58 62c-9 2-16 7-20 15M102 62c9 2 16 7 20 15M68 88c-5 4-12 7-19 9M92 88c5 4 12 7 19 9" stroke="#eef2f7" stroke-opacity=".38" stroke-linecap="round"/>
    <path d="M80 63v257" stroke="#f8fafc" stroke-opacity=".18" stroke-linecap="round"/>
  </g>
</svg>
