<svg xmlns="http://www.w3.org/2000/svg" viewBox="0 0 160 340" fill="none">
  <defs>
    <linearGradient id="backBody" x1="80" x2="80" y1="18" y2="320" gradientUnits="userSpaceOnUse">
      <stop stop-color="#f2f0ed"/>
      <stop offset=".48" stop-color="#d6d2cf"/>
      <stop offset="1" stop-color="#b6b3b1"/>
    </linearGradient>
    <linearGradient id="backShadow" x1="22" x2="138" y1="72" y2="286" gradientUnits="userSpaceOnUse">
      <stop stop-color="#7d8590" stop-opacity=".05"/>
      <stop offset=".52" stop-color="#202733" stop-opacity=".24"/>
      <stop offset="1" stop-color="#0f1722" stop-opacity=".18"/>
    </linearGradient>
    <linearGradient id="backMuscle" x1="80" x2="80" y1="60" y2="300" gradientUnits="userSpaceOnUse">
      <stop stop-color="#ebeff5" stop-opacity=".88"/>
      <stop offset=".55" stop-color="#cfd6df" stop-opacity=".76"/>
      <stop offset="1" stop-color="#b9c1ca" stop-opacity=".74"/>
    </linearGradient>
    <filter id="backGlow" width="180" height="360" x="-10" y="-10" color-interpolation-filters="sRGB" filterUnits="userSpaceOnUse">
      <feDropShadow dx="0" dy="8" flood-color="#111827" flood-opacity=".24" stdDeviation="8"/>
    </filter>
  </defs>

  <g filter="url(#backGlow)">
    <ellipse cx="80" cy="24" rx="20" ry="22" fill="url(#backBody)" stroke="#8f98a3" stroke-opacity=".6" stroke-width=".9"/>
    <path d="M74 43v15c3 3 9 3 12 0V43Z" fill="url(#backBody)" stroke="#8f98a3" stroke-opacity=".58" stroke-width=".85"/>
    <path d="M30 60c-10 6-14 23-14 47 0 22 4 42 10 56h108c6-14 10-34 10-56 0-24-4-41-14-47-16-6-32-8-50-8s-34 2-50 8Z" fill="url(#backBody)" stroke="#8f98a3" stroke-opacity=".62" stroke-width=".95"/>
    <path d="M14 65C6 76 4 103 8 127c2 12 10 17 18 15l2-79Z" fill="url(#backBody)" stroke="#8f98a3" stroke-opacity=".54" stroke-width=".8"/>
    <path d="M146 65c8 11 10 38 6 62-2 12-10 17-18 15l-2-79Z" fill="url(#backBody)" stroke="#8f98a3" stroke-opacity=".54" stroke-width=".8"/>
    <path d="M6 129c-2 14 0 37 4 49 4 8 12 11 18 9v-46Z" fill="url(#backBody)" stroke="#8f98a3" stroke-opacity=".5" stroke-width=".78"/>
    <path d="M154 129c2 14 0 37-4 49-4 8-12 11-18 9v-46Z" fill="url(#backBody)" stroke="#8f98a3" stroke-opacity=".5" stroke-width=".78"/>
    <path d="M26 165c-4 18-6 54-4 83 2 12 10 18 22 16 12-2 16-12 18-24l2-75Z" fill="url(#backBody)" stroke="#8f98a3" stroke-opacity=".58" stroke-width=".9"/>
    <path d="M134 165c4 18 6 54 4 83-2 12-10 18-22 16-12-2-16-12-18-24l-2-75Z" fill="url(#backBody)" stroke="#8f98a3" stroke-opacity=".58" stroke-width=".9"/>
    <path d="M22 250c-2 14 0 43 4 57 4 10 12 14 22 12 10-2 14-10 12-23v-50Z" fill="url(#backBody)" stroke="#8f98a3" stroke-opacity=".55" stroke-width=".88"/>
    <path d="M138 250c2 14 0 43-4 57-4 10-12 14-22 12-10-2-14-10-12-23v-50Z" fill="url(#backBody)" stroke="#8f98a3" stroke-opacity=".55" stroke-width=".88"/>

    <path d="M22 66c-4 8-6 19-6 33 0 22 4 42 10 56h108c6-14 10-34 10-56 0-14-2-25-6-33-12 9-24 14-38 16-8 2-14 6-20 12-6-6-12-10-20-12-14-2-26-7-38-16Z" fill="url(#backShadow)" opacity=".55"/>
    <path d="M30 63c-8 6-12 20-12 40 2 24 6 42 10 54h104c4-12 8-30 10-54 0-20-4-34-12-40-16-6-32-8-50-8s-34 2-50 8Z" fill="url(#backMuscle)" opacity=".82"/>
    <path d="M28 63c-10 6-16 18-14 32 1 8 5 16 12 22l6-10c-4-4-6-11-6-19 0-10 3-18 8-23ZM132 63c10 6 16 18 14 32-1 8-5 16-12 22l-6-10c4-4 6-11 6-19 0-10-3-18-8-23Z" fill="url(#backShadow)" opacity=".9"/>
    <path d="M36 86c10 2 20 7 28 15 6 6 10 16 16 28 6-12 10-22 16-28 8-8 18-13 28-15" stroke="#eef2f7" stroke-opacity=".38" stroke-linecap="round"/>
    <path d="M80 64v98" stroke="#f8fafc" stroke-opacity=".4" stroke-linecap="round"/>
    <path d="M12 101c-4 13-4 29 0 41 5 8 12 11 18 7 7-4 9-12 8-21-1-10-4-20-10-27-4-4-10-5-16 0ZM148 101c4 13 4 29 0 41-5 8-12 11-18 7-7-4-9-12-8-21 1-10 4-20 10-27 4-4 10-5 16 0Z" fill="url(#backMuscle)" opacity=".68"/>
    <path d="M28 165c-4 10-6 24-4 38 4 15 16 24 34 25 7 0 14-2 22-6 8 4 15 6 22 6 18-1 30-10 34-25 2-14 0-28-4-38Z" fill="url(#backMuscle)" opacity=".8"/>
    <path d="M28 224c-3 14-4 33-2 46 2 11 8 16 17 15 10-1 15-7 18-18l3-43ZM132 224c3 14 4 33 2 46-2 11-8 16-17 15-10-1-15-7-18-18l-3-43Z" fill="url(#backMuscle)" opacity=".72"/>
    <path d="M24 272c-2 12 0 31 4 43 4 8 10 11 18 10 8-1 11-7 10-16l-2-37ZM136 272c2 12 0 31-4 43-4 8-10 11-18 10-8-1-11-7-10-16l2-37Z" fill="url(#backShadow)" opacity=".6"/>
    <path d="M56 60c-8 2-15 7-20 14M104 60c8 2 15 7 20 14M54 112c7 10 16 17 26 22M106 112c-7 10-16 17-26 22" stroke="#f8fafc" stroke-opacity=".3" stroke-linecap="round"/>
  </g>
</svg>
